<svg width="1014" height="95" viewBox="0 0 1014 95" fill="none" xmlns="http://www.w3.org/2000/svg">
<path d="M20.3 2.80006C12.9 5.40006 6.7 10.9001 3.3 17.8001L0.5 23.5001V48.0001C0.5 75.8001 1 78.0001 8.6 85.5001C15 91.7001 22 94.5001 31.5 94.5001C38.6 94.5001 40.4 94.1001 46.2 91.2001C59.1 84.8001 63.3 76.8001 63.4 58.0001L63.5 46.5001L35.1 46.2001L6.8 46.0001L7.5 36.7001C8.4 24.0001 9.5 20.5001 14.1 15.5001C19.4 9.80006 25 7.60006 33.4 8.20006C42.9 8.80006 48.4 12.5001 52.9 21.3001C56.1 27.5001 56.6 28.0001 59.7 28.0001C63.9 28.0001 64 26.3001 60 18.2001C56.6 11.6001 52.3 7.20006 45.7 3.80006C39.8 0.80006 27.4 0.30006 20.3 2.80006ZM55.8 61.7001C55.3 72.0001 53.2 77.0001 47 82.2001C39.8 88.4001 30.1 89.7001 21.5 85.6001C15.9 83.0001 11.7 78.9001 9.9 74.5001C8.6 71.2001 6.8 55.1001 7.6 53.8001C7.9 53.4001 18.9 53.0001 32.2 53.0001H56.2L55.8 61.7001Z" fill="#B3B9C0"/>
<path d="M766 1.90003C756.8 4.80003 748 12.6 745.3 20.4C743.8 24.7 743.5 29.1 743.5 48.5C743.5 70.5 743.6 71.7 745.9 76.7C748.6 82.9 755.3 89.4 761.8 92.2C768 95 777.2 95.6 783.5 93.6C788 92.2 788.9 92.2 793.9 93.7C805.5 97 820.8 92.3 827.7 83.2C833.4 75.6 834.2 70.9 833.8 45.2C833.5 23.8 833.4 22.2 831.2 17.8C824.8 4.80003 807.6 -2.09997 792.9 2.30003C789.3 3.40003 787.8 3.40003 785 2.40003C781.1 1.00003 769.9 0.700029 766 1.90003ZM778.8 10.7C777.4 12.3 775.2 15.5 773.9 18C771.6 22.3 771.5 23.7 771.2 44.5C770.8 69.6 771.5 74.5 776.6 82.1C778.5 84.9 780 87.4 780 87.7C780 88 777.1 88 773.5 87.8C769.1 87.4 765.7 86.4 762.6 84.6C752.3 78.6 750.7 73.1 751.2 45.2C751.5 26.2 751.7 24.2 753.7 20.4C758.1 12.2 765.1 8.10003 774.9 8.00003H781.4L778.8 10.7ZM812.5 9.90003C818 12.4 821.7 16.2 824.3 21.8C826.3 26.1 826.5 28.1 826.5 47C826.5 61.2 826.1 68.9 825.1 72C823.5 77.7 816.1 85.1 810.4 86.8C806.4 88 797 88.5 797 87.5C797 87.2 798.6 85 800.5 82.5C805.3 76.1 806.1 72.7 806.7 54C807.5 29.4 805.3 17.2 799.1 11.6C797.9 10.5 797 9.30003 797 8.80003C797 7.20003 808.4 8.00003 812.5 9.90003ZM792.8 15.4C798 21.3 798.5 24.4 798.5 48.5C798.5 69.5 798.4 70.7 796.2 75.2C794.9 77.9 792.6 80.9 791.2 82.1L788.5 84.2L784.8 80.2C782.8 78 780.6 74.3 779.9 71.9C778.1 65.9 778.1 30.1 779.9 24.2C781 20.2 787.2 12 789 12C789.4 12 791.1 13.5 792.8 15.4Z" fill="#B3B9C0"/>
<path d="M122 7.70004C120.8 10.9 113.3 31.3 105.3 53C97.3 74.7 90.6 92.8 90.4 93.2C90.1 93.7 91.8 94 94.2 94H98.5L102.4 83L106.2 72H127.5H148.8L150.4 76.2C151.3 78.6 153 83.4 154.3 87C156.7 93.5 156.7 93.5 160.8 93.8L165 94.1L161.9 85.8C160.3 81.2 152.7 60.6 145.1 40L131.3 2.50004L127.8 2.20004C124.2 1.90004 124.1 2.00004 122 7.70004ZM137.4 39.7C142.1 53 146 64.1 146 64.4C146 64.7 137.6 65 127.4 65C112.9 65 108.9 64.7 109.3 63.7C109.5 63.1 113.7 51.3 118.5 37.7C123.8 23 127.7 13.4 128.1 14.2C128.5 14.9 132.7 26.4 137.4 39.7Z" fill="#B3B9C0"/>
<path d="M195 48.0001V94.0001H199H203V73.0001V52.0001H214H225V73.0001V94.0001H229H232.9L233.2 78.7001L233.5 63.5001L241.5 78.7001L249.4 94.0001H253.8C256.2 94.0001 258 93.7001 257.8 93.2001C257.7 92.8001 252.9 83.6001 247.3 72.8001C241.6 62.0001 237 52.9001 237 52.6001C237 52.2001 241.8 52.1001 247.6 52.2001L258.3 52.5001L268.9 73.2001L279.5 94.0001H283.8C286.1 94.0001 288 93.7001 288 93.4001C288 93.1001 283.3 83.7001 277.5 72.6001C271.7 61.4001 267 52.1001 267 51.8001C267 51.5001 268.2 51.0001 269.8 50.7001C271.3 50.4001 274.6 48.8001 277.1 47.2001C289.3 39.4001 290.8 18.7001 279.9 8.30006C273.5 2.20006 271.6 2.00006 231.4 2.00006H195V48.0001ZM225 26.5001V45.0001H214H203V26.5001V8.00006H214H225V26.5001ZM264.9 9.00006C271.6 10.3001 275.7 13.2001 278.1 18.4001C282.9 29.0001 277.8 41.0001 267.3 43.9001C265.2 44.5001 260.4 45.0001 256.7 45.0001H249.9L252.3 41.7001C258 34.1001 258.7 23.6001 254 14.4001C252.4 11.2001 251 8.40006 251 8.20006C251 7.60006 260.3 8.10006 264.9 9.00006ZM240.5 11.0001C246.7 14.0001 249.3 19.3001 248.8 27.9001C248.3 37.4001 244.9 41.5001 235.3 44.5001L233 45.1001V27.1001C233 6.70006 232.8 7.20006 240.5 11.0001Z" fill="#B3B9C0"/>
<path d="M323 47.9001V94.0001H327H331L331.2 57.3001L331.5 20.7001L345 50.6001L358.6 80.5001L362.5 80.8001L366.5 81.1001L379.5 51.4001C386.7 35.2001 392.8 21.6001 393.3 21.4001C393.7 21.1001 394 37.3001 394 57.4001V94.0001H397.5H401V48.0001V2.00006H397.2H393.5L378.5 36.1001C370.2 54.8001 363.2 70.4001 362.9 70.6001C362.5 70.8001 355.3 55.6001 346.8 36.7001L331.3 2.50006L327.1 2.20006L323 1.90006V47.9001Z" fill="#B3B9C0"/>
<path d="M439 48.0001V94.0001H467H495V90.5001V87.0001H470.5H446V69.0001V51.0001H467H488V47.5001V44.0001H467H446L446.2 26.2001L446.5 8.50006L470.8 8.20006L495 8.00006V5.00006V2.00006H467H439V48.0001Z" fill="#B3B9C0"/>
<path d="M531 48.0001V94.0001H535H539L539.2 54.9001L539.5 15.7001L551.3 33.4001L563 51.0001V72.5001V94.0001H567H570.9L571.2 78.8001L571.5 63.7001L581.5 78.8001C591.4 93.8001 591.5 94.0001 595.2 94.0001H599L599.2 76.2001L599.5 58.5001L611.2 76.3001L622.9 94.0001H627H631V48.0001V2.00006H627H623V41.2001V80.5001L611 62.5001L599 44.5001V23.2001V2.00006H595.5H592V17.0001C592 25.2001 591.7 32.0001 591.3 32.0001C590.8 32.0001 586 25.2001 580.6 17.0001L570.7 2.00006H566.9H563V19.7001V37.5001L551.2 19.8001L539.5 2.00006H535.3H531V48.0001ZM592 63.0001C592 71.8001 591.7 79.0001 591.3 79.0001C590.8 79.0001 586.1 72.3001 580.8 64.2001L571 49.4001V32.5001V15.5001L581.5 31.2001L592 47.0001V63.0001Z" fill="#B3B9C0"/>
<path d="M661 5.00006V8.00006H674.5H688V51.0001V94.0001H692H696V51.0001V8.00006H710H724V5.00006V2.00006H692.5H661V5.00006Z" fill="#B3B9C0"/>
<path d="M866 48.0001V94.0001H870H874V73.0001V52.0001H886.4H898.8L909.6 73.0001L920.5 94.0001H924.7C927.1 94.0001 929 93.8001 929 93.6001C929 93.3001 924.3 84.1001 918.5 73.1001C912.7 62.1001 908 52.8001 908 52.3001C908 51.8001 910.2 50.7001 912.9 49.7001C918.8 47.6001 925.4 40.9001 926.9 35.4001C930.6 22.0001 925.6 9.50006 914.6 4.40006C909.7 2.10006 908.5 2.00006 887.8 2.00006H866V48.0001ZM911.9 11.0001C917.6 14.2001 920.3 19.3001 920.3 26.9001C920.3 32.8001 918.6 37.2001 915.2 40.3001C911.1 44.0001 906.1 44.9001 889.8 45.0001H874V26.4001V7.80006L890.8 8.20006C906.3 8.50006 907.8 8.70006 911.9 11.0001Z" fill="#B3B9C0"/>
<path d="M965.4 28.5001L979 54.9001V74.5001V94.0001H983H987V75.0001V56.0001L1000.5 29.0001L1014 2.00006H1009.8L1005.5 2.10006L994.4 24.8001L983.3 47.5001L971.9 24.7001L960.5 2.00006H956.2H951.8L965.4 28.5001Z" fill="#B3B9C0"/>
</svg>
