<svg width="1005" height="146" viewBox="0 0 1005 146" fill="none" xmlns="http://www.w3.org/2000/svg">
<path d="M31.7 18.3L0.0999756 36.5L0.299976 73.4L0.499976 110.3L31.5 128.1C48.5 138 62.9 146 63.5 146C64.1 146 78.5 137.9 95.5 128.1L126.5 110.2V73.4V36.6L97.5 19.7C81.6 10.5 67.4 2.3 66 1.5C63.5 0.199998 62 0.999998 31.7 18.3ZM63.8 34.6L63.5 46.3L51.2 53.3L38.9 60.3L39.2 74.2L39.5 88.2L51.4 95.1L63.4 102.1L75.4 95.1L87.5 88.2L87.8 78.6C87.9 73.3 87.8 69 87.5 69C87 69 72.9 76.5 63.8 81.7C63.3 81.9 63 77.2 63 71.2V60.2L77.6 51.6L92.3 43L99.9 47.4L107.5 51.8V75.6V99.5L85.5 112.2L63.5 124.8L58.5 122C55.8 120.4 45.9 114.7 36.5 109.3L19.5 99.5V73.5V47.5L40.5 35.3C52.1 28.6 62.1 23.1 62.8 23C63.8 23 64 25.7 63.8 34.6Z" fill="#B3B9C0"/>
<path d="M207.6 2.00002C203.8 3.20002 200.2 6.60002 198.2 11C196.8 13.9 196.5 18.3 196.5 37C196.5 59 196.6 59.6 199 64.5C202 70.5 206.2 73.1 212.8 73.3C218.6 73.5 223.3 71.6 225 68.4C226.5 65.7 228 66.8 228 70.7C228 72.6 228.6 73 231 73H234V55.5V38H224.9H215.9L216.2 41.2C216.5 44.3 216.8 44.5 220.8 44.8L225 45.1V51.3C225 62.8 219.8 68 211.8 64.7C208.6 63.3 208.1 62.6 207 57.8C206.2 54.4 205.9 45.7 206.2 33.3C206.5 14.6 206.6 14.1 208.9 11.6C210.8 9.60002 212.3 9.00002 215.5 9.00002C221.4 9.00002 224 12 224 18.8V24H229.1H234.3L233.7 18.5C233 11.8 230.5 6.30002 226.8 3.70002C223.8 1.50002 212.4 0.400017 207.6 2.00002Z" fill="#B3B9C0"/>
<path d="M258.7 2.4C253.7 4.2 252 5.8 249.9 10.5C248.3 14 248 17.4 248 37C248 58.4 248.1 59.8 250.3 64C253.7 70.9 257.7 73 267 73C276.3 73 280.3 70.9 283.8 64C286 59.6 286.1 58.8 285.8 36C285.5 14.5 285.3 12.2 283.5 9C279.5 2.1 268.2 -0.899996 258.7 2.4ZM273.5 11.5L276 13.9V36.9C276 59.7 276 59.9 273.6 62.7C270.2 66.6 263.8 66.6 260.4 62.7C258 59.9 258 59.7 258 36.9V13.9L260.5 11.5C262.3 9.6 264 9 267 9C270 9 271.7 9.6 273.5 11.5Z" fill="#B3B9C0"/>
<path d="M611.5 2.5C606.9 4.1 603.4 8 602 13C601.5 14.9 601 26.2 601 38C601 58.4 601.1 59.8 603.3 64C606.7 70.9 610.7 73 620 73C629.3 73 633.3 70.9 636.8 64C638.9 59.8 639 58.4 639 37C639 15.6 638.9 14.2 636.8 10C632.7 2 621.9 -1.2 611.5 2.5ZM626.5 11.5L629 13.9V36.9C629 59.7 629 59.9 626.6 62.7C623.2 66.6 616.8 66.6 613.4 62.7C611 59.9 611 59.7 611 36.9V13.9L613.5 11.5C615.3 9.6 617 9 620 9C623 9 624.7 9.6 626.5 11.5Z" fill="#B3B9C0"/>
<path d="M709.5 2.5C707.3 3.3 704.5 5.1 703.3 6.6C699.4 11.5 698.8 16.2 699.2 39.5C699.5 59.6 699.7 61.8 701.6 65C705.1 71 709.1 73 718 73C727.5 73 731.3 70.9 735 63.5C737.4 58.6 737.5 57.9 737.5 37C737.5 16.1 737.4 15.4 735 10.5C733.1 6.7 731.5 5 728 3.2C722.9 0.600004 715.6 0.300004 709.5 2.5ZM723.9 10.7C725.1 11.7 726.5 14.3 727 16.5C728.3 22.2 728.1 53.6 726.7 59C725.6 63 725 63.7 721.4 64.9C718 66.1 717 66.1 714.5 64.9C709.3 62.4 708.9 60.6 709.2 35.7C709.5 13 709.5 12.8 711.9 10.9C714.8 8.5 721.1 8.4 723.9 10.7Z" fill="#B3B9C0"/>
<path d="M878.5 2.1C874.8 3.1 871.6 6 869.3 10.3C867.7 13.1 867.5 16.5 867.5 37C867.5 60.2 867.5 60.6 870 64.9C873.4 70.9 877.7 73 886.5 73C895.7 73 899.6 70.9 903 64.4C905.4 59.8 905.5 58.6 905.8 40C906.2 17.6 905.3 11.6 900.8 6.5C896.4 1.5 887 -0.400001 878.5 2.1ZM892 10C893.1 10.6 894.4 12.7 895 14.8C896.4 20 896.2 55.6 894.7 60C892.2 67.3 882.2 67.9 878.8 61C877.3 58 877 54.5 877 37.3C877 17 877.6 12.6 880.7 10.2C882.7 8.7 889.4 8.6 892 10Z" fill="#B3B9C0"/>
<path d="M977 2.7C971.6 5.5 969 10.2 969 17.1C969 20.3 969.5 24.1 970 25.7C970.6 27.2 976.3 33.5 982.6 39.5C994 50.3 994.3 50.6 994.7 55.5C995.4 62.1 993 65.4 987.5 65.4C982.8 65.4 979.3 61.7 978.4 55.9C977.6 51.1 977 50.7 972.4 51.6L968.8 52.3L969.3 57.2C970.6 67.7 976.5 73 987 73C998.2 73 1004 67.5 1004 56.7C1004 47.8 1002.1 44.6 989.5 32.4C978.1 21.5 978 21.4 978 16.8C978 11.3 980.3 9 986.1 9C990.4 9 992.4 10.9 994 16.9C995.1 21 995.3 21.2 998.2 20.6C999.9 20.3 1001.6 20 1002.1 20C1003.8 20 1003 14.4 1000.8 10C997.5 3.7 994.2 1.7 986.7 1.2C982.1 0.999999 979.6 1.4 977 2.7Z" fill="#B3B9C0"/>
<path d="M301 37.5V73.1L314.8 72.8L328.5 72.5L328.8 69.3L329.1 66.1L319.8 65.8L310.5 65.5L310.2 33.7L310 1.99997H305.5H301V37.5Z" fill="#B3B9C0"/>
<path d="M340 37.5V73.2L351.8 72.8C363.9 72.3 367.6 71.3 371.3 67.2C375.2 62.9 375.9 58.4 376 36.5C376 16.6 375.9 15.2 373.8 11C369.9 3.40001 367.8 2.60001 352.9 2.10001L340 1.80001V37.5ZM362.7 11.4L365.5 13.8L365.8 35.3C366.2 60.6 365.6 63.2 359.3 64.9C357.2 65.5 354.3 66 352.8 66H350V37.5V9.00001H354.9C358.7 9.00001 360.5 9.60001 362.7 11.4Z" fill="#B3B9C0"/>
<path d="M390.2 37.2L390.5 72.5L404.3 72.8L418 73.1V69.6V66.1L409.3 65.8L400.5 65.5L400.2 52.8L399.9 40.1L407.2 39.8L414.5 39.5L414.8 36.3L415.1 33.1L407.8 32.8L400.5 32.5L400.2 20.7L399.9 8.99997H409H418V5.49997V1.99997H404H390L390.2 37.2Z" fill="#B3B9C0"/>
<path d="M430.2 37.2L430.5 72.5L434.7 72.8L439 73.1L439.2 49.5L439.5 26L449.4 49.5L459.3 73.1L462.4 72.8L465.5 72.5L465.8 37.2L466 1.99997H461.5H457V24.7L456.9 47.5L447.2 24.8L437.5 1.99997H433.7H430L430.2 37.2Z" fill="#B3B9C0"/>
<path d="M506 37.5V73H510.5H515V56.6V40.3L522.5 39.7C535.7 38.7 540.4 33.8 540.5 21C540.5 12 538.1 6.6 533 3.8C530.2 2.4 527.3 2 517.8 2H506V37.5ZM528.5 11.5C530.6 13.6 531 14.8 531 20.4C531 29.2 528.8 31.8 521 32.2L515.5 32.5L515.2 20.7L514.9 9H520.5C525.1 9 526.5 9.4 528.5 11.5Z" fill="#B3B9C0"/>
<path d="M552 37.5V73H557H562V55.9V38.9L565.8 39.2L569.5 39.5L572.8 51C574.6 57.3 576.7 64.9 577.5 67.7L579.1 73H583.5C586.4 73 588 72.6 588 71.8C588 71.1 585.9 63.2 583.4 54.3L578.7 38L581.8 35.1C583.6 33.5 585.4 31 586 29.6C587.7 25.1 587.2 15 585 10.2C582.1 3.8 577.5 2 563.3 2H552V37.5ZM574.2 11C579.3 15 578.5 27.9 573 30.7C571.6 31.4 568.6 32 566.3 32H562V20.5V9H566.9C570.2 9 572.5 9.6 574.2 11Z" fill="#B3B9C0"/>
<path d="M654 37.5V73H658.5H663V56.6V40.3L670.4 39.7C679.3 39.1 683 37.3 686.1 32.3C689.3 27.1 689.5 15.4 686.4 9.6C683.2 3.3 679.6 2 665.8 2H654V37.5ZM676.4 11.1C678.8 13 679 13.8 679 20C679 29.3 676.9 31.8 669 32.2L663.5 32.5L663.2 20.7L662.9 9H668.3C672.3 9 674.4 9.6 676.4 11.1Z" fill="#B3B9C0"/>
<path d="M752 37.5V73.1L756.8 72.8L761.5 72.5L761.8 55.7L762 38.9L765.7 39.2L769.3 39.5L773.9 56L778.5 72.5L783.3 72.8C785.9 73 788 72.7 788 72.3C788 71.9 785.8 63.8 783.1 54.5L778.3 37.5L780.5 36.1C784.9 33.4 786.5 29.1 786.5 20.5C786.5 11.4 784.8 7.49997 779.6 4.39997C777.1 2.89997 774 2.39997 764.3 2.19997L752 1.79997V37.5ZM774.5 11.5C776.6 13.5 777 14.9 777 19.4C777 28.8 774.2 32 766 32H762V20.5V8.99997H767C771.1 8.99997 772.6 9.49997 774.5 11.5Z" fill="#B3B9C0"/>
<path d="M797 5.49997V8.99997H803H809L809.2 40.7L809.5 72.5L814.2 72.8L819 73.1L819.2 41.3L819.5 9.49997L825.3 9.19997L831 8.89997V5.49997V1.99997H814H797V5.49997Z" fill="#B3B9C0"/>
<path d="M843 37.5V73H847.5H852V37.5V2H847.5H843V37.5Z" fill="#B3B9C0"/>
<path d="M920 37.4V73H924H928L928.1 49.2C928.1 32.9 928.4 26 929.1 27C929.7 27.8 934.3 38.4 939.4 50.5C948.5 72.2 948.7 72.5 951.8 72.8L955 73.1V37.6V1.99998H951H947L946.8 24.7L946.5 47.5L936.8 25L927.2 2.49998L923.6 2.19998L920 1.89998V37.4Z" fill="#B3B9C0"/>
<path d="M837.6 97C831 99 827.1 105.1 826.3 115C825.6 122.8 827.1 129.9 830.2 134.3C835.6 141.8 850.8 143.3 857.7 136.8C859.7 134.9 860 133.7 860 126.8V119H852C844.7 119 844 119.2 844 121C844 122.7 844.7 123 849 123H854.1L853.8 128.7L853.5 134.5L849.3 135.9C843.7 137.9 838 136.2 834.8 131.7C831.7 127.4 830.9 112.1 833.4 107.1C837.7 99 849.8 98.3 853.1 106.1C854 108.3 854.9 109 857.1 109C859.7 109 859.9 108.8 859 106.4C857 101.2 855.8 99.8 851.7 97.9C847.2 95.9 842.4 95.6 837.6 97Z" fill="#B3B9C0"/>
<path d="M340 118.4V140H342.6H345.1L344.8 123C344.6 113.7 344.8 106.4 345.2 106.8C345.5 107.2 348.7 114.7 352.3 123.5C358 137.5 359.1 139.5 361.2 139.8C363.5 140.1 364.1 139 370.6 122.9L377.5 105.7L377.8 122.9L378 140H380.5H383V118.4V96.9L379.3 97.2L375.6 97.5L368.7 114.8C364.8 124.3 361.4 131.8 361.1 131.4C360.8 131.1 357.5 123.4 353.9 114.2L347.2 97.5L343.6 97.2L340 96.9V118.4Z" fill="#B3B9C0"/>
<path d="M423.7 111.7C420.6 119.9 416.9 129.5 415.6 133.2L413 140H416C418.6 140 419 139.5 420.6 134.5L422.4 128.9L431.9 129.2L441.5 129.5L443.4 134.8C445 139.4 445.6 140 448.1 140H451L449.1 135.2C448.1 132.6 444.4 123 440.9 113.7C434.9 98.1 434.4 97 432 97C429.6 97 429 98 423.7 111.7ZM435.9 114.1C437.6 118.8 439 123.2 439 123.8C439 124.6 436.7 125 432 125C427.3 125 425 124.6 425 123.8C425 121.5 431.5 104.1 432.1 104.8C432.5 105.2 434.2 109.4 435.9 114.1Z" fill="#B3B9C0"/>
<path d="M480 118.4V140H483H486V131.5V123H491.3H496.5L501 131.5C505 139 505.8 140 508.3 140C509.8 140 511 139.7 511 139.4C511 139.1 509 135.1 506.5 130.5L501.9 122.1L505.7 118.6C509.2 115.4 509.5 114.8 509.5 109.6C509.5 104.7 509.1 103.7 506.2 100.8C503 97.5 502.9 97.5 491.5 97.2L480 96.8V118.4ZM502.1 103.9C503.2 105.3 504 107.8 504 110C504 115.7 500.6 118 492.4 118H486V109.4V100.8L493.1 101.2C499.1 101.5 500.5 102 502.1 103.9Z" fill="#B3B9C0"/>
<path d="M541 118.5V140H543.5C545.9 140 546 139.8 546 133.2C546 127 546.3 126.1 548.9 123.6C550.5 122 552.3 121 552.8 121.3C553.3 121.7 556.8 126 560.5 131C566.8 139.2 567.7 140 570.7 140H574.1L564.9 128L555.7 116L562.6 108.2C573.1 96.5 572.8 97 569.2 97C566.6 97 564.8 98.5 557 107.2C551.9 112.9 547.4 117.6 546.9 117.8C546.4 118 546 113.4 546 107.6V97H543.5H541V118.5Z" fill="#B3B9C0"/>
<path d="M603 118.5V140H616.5C629.3 140 630 139.9 630 138C630 136.1 629.3 136 619 136H608V128V120H617.5C626.3 120 627 119.8 627 118C627 116.2 626.2 116 617.8 115.8L608.5 115.5L608.2 108.2L607.9 101H619C629.3 101 630 100.9 630 99C630 97.1 629.3 97 616.5 97H603V118.5Z" fill="#B3B9C0"/>
<path d="M658 99C658 100.8 658.7 101 665 101H672V120.5V140H674.5H677V120.5V101H684C690.3 101 691 100.8 691 99C691 97.1 690.3 97 674.5 97C658.7 97 658 97.1 658 99Z" fill="#B3B9C0"/>
<path d="M722 118.5V140H724.5H727V118.5V97H724.5H722V118.5Z" fill="#B3B9C0"/>
<path d="M761 118.5V140H763.5H766V124C766 115.2 766.3 108 766.8 108C767.2 108 772.2 115.2 777.8 124C787.3 138.6 788.4 140 791.1 140H794V118.5V97H791.5H789L788.8 113.7L788.5 130.5L777.5 113.8C767.7 98.9 766.2 97 763.8 97H761V118.5Z" fill="#B3B9C0"/>
<path d="M197 120.5C197 121.8 204.3 122 256.5 122C308.7 122 316 121.8 316 120.5C316 119.2 308.7 119 256.5 119C204.3 119 197 119.2 197 120.5Z" fill="#B3B9C0"/>
<path d="M885 120.5C885 121.8 892.3 122 945 122C997.7 122 1005 121.8 1005 120.5C1005 119.2 997.7 119 945 119C892.3 119 885 119.2 885 120.5Z" fill="#B3B9C0"/>
</svg>
