<svg width="2203" height="475" viewBox="0 0 2203 475" fill="none" xmlns="http://www.w3.org/2000/svg">
<path d="M227.5 1.1C206.4 2.8 181 8.3 161.5 15.4C146.6 20.9 121.1 33.9 107.5 42.9C47.4 82.8 8.40004 145.7 1.00004 214.8C-0.799965 230.6 0.200035 260.1 2.90004 275.5C21.2 378.9 106.2 457.7 216 473.2C228.4 474.9 271.6 474.9 282.5 473.2C306.1 469.4 322.2 465.2 341 457.9C373.2 445.3 400.6 427.9 425.2 404.2C462 368.7 485.6 325.2 494.6 276.5C496.8 264.5 497.6 226.9 496.1 212.9C487.6 138 446.1 74.5 380.6 35.7C335.1 8.8 281.7 -3.3 227.5 1.1ZM276.7 171.5C329 180.6 366.3 219 374.6 272.5C376.8 287.3 376.1 317.4 373.2 330C365.4 363 347.4 388.8 320.2 405.7C279.6 431 218.5 431 178.3 405.8C156.8 392.2 140.9 374.1 131.5 352.3C120 325.8 117.7 289.1 125.5 259.2C138.3 210.5 179.7 175.9 231.7 170.1C242.9 168.9 265.3 169.6 276.7 171.5Z" fill="#B3B9C0"/>
<path d="M1942.5 133.2C1942.2 133.9 1942.1 182 1942.2 240L1942.5 345.5L1951.3 345.8L1960 346.1V311C1960 291.8 1960.2 276 1960.5 276C1960.8 276 1978.8 291.8 2000.6 311L2040.1 346H2052.3H2064.5L2061.5 343.1C2059.8 341.6 2041 324.6 2019.7 305.5C1998.4 286.4 1981 270.5 1981.2 270C1981.4 269.6 1998 254 2018.3 235.5C2038.5 216.9 2055 201.3 2055 200.8C2055 200.4 2050.1 200 2044.2 200H2033.4L1997 233.7L1960.5 267.4L1960.2 199.7L1960 132H1951.5C1945.6 132 1942.8 132.4 1942.5 133.2Z" fill="#B3B9C0"/>
<path d="M595 242.5V346H611.5H628V283.2C628.1 229.8 628.3 220.9 629.4 223C630.2 224.4 642 251.4 655.8 283C669.5 314.6 681.4 341.7 682.1 343.2L683.3 346H695.6H707.8L734.9 282.7L762 219.5V282.8V346L778.8 345.8L795.5 345.5V242.5V139.5H780.6H765.8L730.9 219.4C711.7 263.4 695.9 299.4 695.7 299.6C695.6 299.7 679.5 263.7 660.1 219.4L624.7 139H609.9H595V242.5Z" fill="#B3B9C0"/>
<path d="M1305.7 139.7C1305.5 140.1 1321.4 186.6 1341 243L1376.8 345.5H1384.6H1392.5L1423.2 258C1440.1 209.9 1454.1 170.1 1454.3 169.7C1454.4 169.2 1468.5 208.7 1485.5 257.4L1516.4 346.1L1524.3 345.8L1532.3 345.5L1568 243C1587.7 186.6 1603.4 140.1 1603 139.7C1602.6 139.3 1598.6 139 1594 139.2L1585.7 139.5L1555.1 228.7C1538.3 277.8 1524.3 318 1523.9 318C1523.6 318 1509.7 278.5 1493.1 230.1C1476.4 181.8 1462.5 141.8 1462.1 141.2C1461.7 140.6 1458.5 139.8 1454.8 139.4C1449 138.8 1448.1 139 1447.3 140.6C1446.7 141.7 1432.6 182.2 1415.9 230.8C1396.1 288.4 1385.2 318.6 1384.6 317.8C1384.2 317 1370.2 276.6 1353.6 228L1323.3 139.5L1314.7 139.2C1310 139.1 1306 139.3 1305.7 139.7Z" fill="#B3B9C0"/>
<path d="M906.9 196C882.2 198.4 860.9 212.1 851.1 232C844.3 245.9 842.7 253.9 842.7 272C842.7 284.5 843.1 289 844.8 295.1C851.9 321.4 868 337.9 893.7 345.2C905.2 348.5 928.1 348.5 939.5 345.2C952.1 341.5 960.4 336.7 969.6 327.5C976 321.2 978.6 317.7 981.9 311C988.3 297.9 990.2 289.1 990.3 272.5C990.4 251.5 986.4 237.3 976.4 223.4C962.3 203.5 936 193.2 906.9 196ZM932 227.2C939.8 230.7 944.5 235.2 948 242.3C952.7 251.9 954.3 261.4 953.7 275.5C952.7 297.5 947.1 308.7 933.7 315.7C928.9 318.3 927.6 318.5 916.5 318.5C905.8 318.5 904 318.2 900 316.1C890.4 311 885.2 304.5 881.7 293.5C878.5 283.3 878.5 260.7 881.7 250.4C885.8 237.6 893.7 229.1 904.9 225.5C912.1 223.2 925.1 224 932 227.2Z" fill="#B3B9C0"/>
<path d="M1683.2 198.9C1658.3 205.1 1641.9 222.8 1635.3 250.8C1632.7 262.1 1632.9 285.5 1635.9 296.5C1639.5 310.4 1645.2 320.4 1654.4 329.5C1667.4 342.5 1679.9 347.4 1700 347.4C1719.8 347.4 1732.4 342.5 1745.1 330C1757.4 317.9 1763.7 303.6 1766 283C1769.2 253.7 1759.9 226.4 1741.3 210.9C1727 198.9 1703.2 194 1683.2 198.9ZM1713.5 214.4C1729.5 218.6 1740.9 231.4 1745.7 250.6C1748.1 260.2 1748.1 284.8 1745.7 294.4C1743.3 304.1 1738.4 313.4 1732.8 319.2C1718.9 333.5 1691.3 336 1673.5 324.5C1667.4 320.5 1665.1 318.1 1660.7 310.7C1654.7 300.8 1652.6 291 1652.6 273C1652.6 261.7 1653 255.7 1654.3 250.7C1659 232 1669.3 219.9 1684.8 214.9C1691.7 212.7 1706.3 212.4 1713.5 214.4Z" fill="#B3B9C0"/>
<path d="M1870.6 198.5C1858.1 201.7 1847.1 210 1841.2 220.8L1838.3 226.2L1837.6 216.3C1837.2 210.9 1836.6 205 1836.3 203.2L1835.8 200H1827.3H1818.8L1819.5 203.2C1819.9 205 1820.5 237.8 1820.9 276L1821.5 345.5L1830.3 345.8L1839 346.1V300.3C1839 249.7 1839.4 245.6 1845.1 235C1849.7 226.2 1854.3 221.5 1861.3 218C1869.1 214.2 1878.3 212.6 1888.2 213.5L1895.8 214.1L1896.5 206.5C1896.9 202.3 1896.9 198.6 1896.6 198.2C1895.2 196.8 1876.5 197.1 1870.6 198.5Z" fill="#B3B9C0"/>
<path d="M2137.5 197.6C2120.7 200.2 2105.7 209.9 2100.3 221.7C2090.9 242.2 2098.7 262.5 2120 273.2C2123.6 274.9 2133.3 277.8 2145.1 280.5C2177.2 287.9 2184.5 293 2184.5 308C2184.5 323.7 2171.8 332 2148 331.9C2131.1 331.9 2118.1 328.2 2105.3 319.7C2101.4 317.1 2098 315 2097.7 315C2097.5 315 2096 317.9 2094.5 321.5C2091.2 329.2 2091.2 329.2 2101.2 335.7C2124.7 350.9 2165.4 351.9 2186.2 337.6C2198.2 329.5 2203.5 319.1 2202.8 305.5C2202.2 294.9 2199.4 288.6 2192.4 282C2185 275 2177.6 271.9 2153.8 266C2131.5 260.4 2124.7 257.7 2120.1 252.5C2112.1 243.3 2114 226.4 2123.8 219.7C2130.7 214.9 2134.9 213.7 2146.5 213.2C2163.4 212.6 2175.5 216.3 2188.7 226.1L2194 230L2197 224C2198.6 220.8 2200 217.4 2200 216.6C2200 215.8 2198.1 213.6 2195.8 211.7C2184.1 202.3 2171 197.9 2153 197.5C2146.1 197.3 2139.2 197.4 2137.5 197.6Z" fill="#B3B9C0"/>
<path d="M1020.7 200.2C1021.3 200.9 1034 216.6 1049 235C1063.9 253.4 1076.4 269 1076.7 269.7C1076.9 270.3 1063.7 287.3 1047.3 307.4C1030.9 327.6 1017.4 344.5 1017.2 345C1017 345.6 1024.6 346 1038.2 346L1059.5 345.9L1078.8 321.5C1089.4 308 1098.4 297 1098.8 297.1C1099.2 297.1 1108.2 308.1 1118.8 321.6L1138.1 346H1159.6C1171.4 346 1181 345.8 1181 345.6C1181 345.3 1168.8 330.1 1153.8 311.8C1138.9 293.5 1125.2 276.7 1123.4 274.4L1120 270.3L1148.5 235.4C1164.1 216.2 1176.9 200.2 1177 199.7C1177 199.3 1167.4 199 1155.7 199H1134.3L1117.2 220.9C1107.7 233 1099.6 243.1 1099.1 243.4C1098.6 243.7 1090.3 233.9 1080.6 221.5L1062.9 199H1041.3C1024.2 199 1020 199.3 1020.7 200.2Z" fill="#B3B9C0"/>
<path d="M1218 272.5V346H1236H1254V272.5V199H1236H1218V272.5Z" fill="#B3B9C0"/>
</svg>
